<?xml version="1.0" encoding="UTF-8"?>
<svg version="1.1" xmlns="http://www.w3.org/2000/svg" width="100" height="100">
<path d="M0 0 C33 0 66 0 100 0 C100 33 100 66 100 100 C67 100 34 100 0 100 C0 67 0 34 0 0 Z " fill="#51B6EA" transform="translate(0,0)"/>
<path d="M0 0 C33 0 66 0 100 0 C100 33 100 66 100 100 C67 100 34 100 0 100 C0 67 0 34 0 0 Z M11.59484863 11.60157776 C9.44551272 14.83386887 9.49237745 17.02149002 9.48242188 20.89233398 C9.4754126 21.57739014 9.46840332 22.26244629 9.46118164 22.96826172 C9.44360768 25.22795411 9.45522213 27.4863891 9.46875 29.74609375 C9.46605457 31.32023864 9.46217172 32.89438192 9.45715332 34.46852112 C9.45125887 37.76636621 9.45981787 41.06377763 9.47851562 44.36157227 C9.50128697 48.58301355 9.48819416 52.80343656 9.46422577 57.02484035 C9.44975 60.27545296 9.45438213 63.52582543 9.46473694 66.77644539 C9.46740031 68.33253157 9.46414815 69.88863975 9.45481873 71.44470024 C9.44462519 73.62314178 9.46019086 75.7999511 9.48242188 77.97827148 C9.48560425 79.21641098 9.48878662 80.45455048 9.49206543 81.73020935 C10.11081338 85.7133528 10.96440299 87.34880204 14 90 C17.26945676 90.75063914 17.26945676 90.75063914 21 90.63110352 C22.04462402 90.64183647 22.04462402 90.64183647 23.11035156 90.65278625 C25.40757267 90.66966643 27.70284011 90.650278 30 90.62890625 C31.59895997 90.62973503 33.19791987 90.63219475 34.796875 90.63621521 C38.14609457 90.63907271 41.49464521 90.62437774 44.84375 90.59692383 C49.1348197 90.56284027 53.42469335 90.56885922 57.71582031 90.5875864 C61.01702832 90.59815984 64.31795845 90.58921563 67.61914062 90.57420158 C69.20116348 90.56902178 70.78321538 90.56949916 72.36523438 90.57574654 C74.57745659 90.58120326 76.78797232 90.56081292 79 90.53344727 C80.258125 90.52724869 81.51625 90.52105011 82.8125 90.5146637 C86.02651641 90.22083807 86.02651641 90.22083807 88.40515137 88.40415955 C90.56924367 85.14189186 90.50770396 82.90366947 90.51757812 79 C90.5245874 78.30358398 90.53159668 77.60716797 90.53881836 76.88964844 C90.55639196 74.59269068 90.54477919 72.29696979 90.53125 70 C90.53394513 68.40103927 90.53782773 66.80208013 90.54284668 65.203125 C90.54874082 61.85400774 90.54018192 58.50531757 90.52148438 55.15625 C90.49869435 50.86521409 90.51181796 46.57517889 90.53577423 42.28417969 C90.5502348 38.98299634 90.54562515 35.68204989 90.53526306 32.38085938 C90.53259646 30.79882692 90.53586322 29.21677289 90.54518127 27.63476562 C90.55535179 25.42259837 90.5398419 23.212047 90.51757812 21 C90.51439575 19.741875 90.51121338 18.48375 90.50793457 17.1875 C90.22160347 13.97335415 90.22160347 13.97335415 88.40515137 11.59484863 C85.14220018 9.43119552 82.90404089 9.49229698 79 9.48242188 C77.95537598 9.47190796 77.95537598 9.47190796 76.88964844 9.46118164 C74.59269068 9.44360804 72.29696979 9.45522081 70 9.46875 C68.40103927 9.46605487 66.80208013 9.46217227 65.203125 9.45715332 C61.85400774 9.45125918 58.50531757 9.45981808 55.15625 9.47851562 C50.86521409 9.50130565 46.57517889 9.48818204 42.28417969 9.46422577 C38.98299634 9.4497652 35.68204989 9.45437485 32.38085938 9.46473694 C30.79882692 9.46740354 29.21677289 9.46413678 27.63476562 9.45481873 C25.42259837 9.44464821 23.212047 9.4601581 21 9.48242188 C19.1128125 9.48719543 19.1128125 9.48719543 17.1875 9.49206543 C13.97216334 9.77762462 13.97216334 9.77762462 11.59484863 11.60157776 Z " fill="#FEFEFE" transform="translate(0,0)"/>
<path d="M0 0 C2.08268593 -0.08126087 4.16628658 -0.13930839 6.25 -0.1875 C7.99023438 -0.23970703 7.99023438 -0.23970703 9.765625 -0.29296875 C13.27064868 0.02451528 14.68597069 0.35948635 17 3 C17.53125 5.3125 17.53125 5.3125 17 8 C15.57536392 10.17317369 14.17124046 12.03361195 12.5 14 C11.49781994 15.22347792 10.49797371 16.44886986 9.5 17.67578125 C8.94699219 18.35205566 8.39398438 19.02833008 7.82421875 19.72509766 C3.55774431 25.04562882 -0.49913142 30.53267995 -4.60351562 35.97851562 C-5.26029297 36.84541016 -5.91707031 37.71230469 -6.59375 38.60546875 C-7.17833984 39.38043701 -7.76292969 40.15540527 -8.36523438 40.95385742 C-12.30405315 45.88385148 -12.30405315 45.88385148 -15.87890625 46.48046875 C-19.97523107 45.84987056 -21.23066612 44.39766008 -23.9375 41.3125 C-24.73027344 40.44238281 -25.52304687 39.57226562 -26.33984375 38.67578125 C-28 36 -28 36 -27.8671875 33.4296875 C-27.58101562 32.62789062 -27.29484375 31.82609375 -27 31 C-26.61908203 29.92685547 -26.61908203 29.92685547 -26.23046875 28.83203125 C-25.01476272 26.47802369 -23.94713055 24.8151217 -22 23 C-18.994433 22.13633132 -16.11909859 21.80526443 -13.01171875 21.4765625 C-7.34928003 20.58056052 -3.62811084 17.54461798 0.4375 13.6875 C2.6192137 9.93495243 2.92977012 7.35425262 3 3 C1.58461161 1.25545908 1.58461161 1.25545908 0 0 Z " fill="#F8FBFC" transform="translate(66,27)"/>
<path d="M0 0 C1.16015625 0.00966797 2.3203125 0.01933594 3.515625 0.02929688 C4.7221875 0.05443359 5.92875 0.07957031 7.171875 0.10546875 C9.00492188 0.12577148 9.00492188 0.12577148 10.875 0.14648438 C13.89106998 0.18182895 16.90624987 0.23117315 19.921875 0.29296875 C18.58375943 3.78026177 17.06290768 7.07217426 15.3203125 10.375 C14.83046875 11.30634766 14.340625 12.23769531 13.8359375 13.19726562 C13.32804687 14.15697266 12.82015625 15.11667969 12.296875 16.10546875 C11.78125 17.08451172 11.265625 18.06355469 10.734375 19.07226562 C9.4657341 21.480334 8.19483534 23.88718175 6.921875 26.29296875 C3.921875 26.29296875 3.921875 26.29296875 2.29614258 24.7199707 C0.42931953 22.35778741 -1.43067726 19.99255723 -3.265625 17.60546875 C-3.91982422 16.78884766 -4.57402344 15.97222656 -5.24804688 15.13085938 C-5.86615234 14.33486328 -6.48425781 13.53886719 -7.12109375 12.71875 C-7.68852295 11.99083252 -8.25595215 11.26291504 -8.84057617 10.51293945 C-10.34678898 7.81102722 -10.62723356 6.33757685 -10.078125 3.29296875 C-7.0715445 -0.03665152 -4.32836211 -0.06365238 0 0 Z " fill="#F7FAFC" transform="translate(27.078125,26.70703125)"/>
<path d="M0 0 C0.5152977 0.64997955 1.0305954 1.29995911 1.56150818 1.96963501 C4.83391202 4.69434138 6.79020526 4.49538937 11.01586914 4.48583984 C12.0629026 4.49153488 12.0629026 4.49153488 13.13108826 4.49734497 C15.43290482 4.50474031 17.73345236 4.48338635 20.03515625 4.4609375 C21.6365087 4.45855258 23.23786399 4.45764786 24.83921814 4.4581604 C28.19255124 4.45503429 31.54545622 4.43848259 34.89868164 4.41162109 C39.19855531 4.3776139 43.49795929 4.36999339 47.7979517 4.37151146 C51.10335276 4.37096786 54.40865099 4.36000288 57.71401787 4.34550858 C59.29965881 4.33914172 60.8853114 4.33520194 62.47096443 4.33372116 C64.68535375 4.32938842 66.89924334 4.3118895 69.11352539 4.29052734 C70.373871 4.28290375 71.63421661 4.27528015 72.93275452 4.26742554 C76.17169009 4.23244752 76.17169009 4.23244752 79 2 C77.125 5.875 77.125 5.875 76 7 C73.74635798 7.11022585 71.48921432 7.14914896 69.23291016 7.16113281 C68.52557236 7.16609772 67.81823456 7.17106262 67.08946228 7.17617798 C64.73931928 7.19083488 62.38924378 7.1976076 60.0390625 7.203125 C58.41100054 7.20887379 56.78293861 7.21463155 55.15487671 7.22039795 C51.73671146 7.23091815 48.3185698 7.23675405 44.90039062 7.24023438 C40.51633652 7.24571965 36.13259293 7.26974388 31.74863625 7.29820633 C28.38407476 7.31681363 25.01958831 7.32203729 21.65497971 7.32357025 C20.03861163 7.32660192 18.42224504 7.33464771 16.80592728 7.34775543 C14.54566982 7.36477579 12.28617411 7.36294589 10.02587891 7.35644531 C8.73871979 7.36009094 7.45156067 7.36373657 6.12539673 7.36749268 C3 7 3 7 1.06088257 5.72772217 C0 4 0 4 0 0 Z " fill="#D4D4D4" transform="translate(10,85)"/>
<path d="M0 0 C2.64 0 5.28 0 8 0 C8.75 1.75 8.75 1.75 9 4 C7.625 6.1875 7.625 6.1875 5 8 C2.00760595 8.62213003 -0.94951918 8.86963757 -4 9 C-2.80100302 5.9168649 -1.52299523 2.93720508 0 0 Z " fill="#EBF5FB" transform="translate(52,34)"/>
</svg>
